# Blender 4.5.1 LTS
# www.blender.org
mtllib PlacementIndicator.mtl
o Cylinder
v 0.000000 0.010000 -0.100000
v 0.038268 0.010000 -0.092388
v 0.070711 0.010000 -0.070711
v 0.092388 0.010000 -0.038268
v 0.100000 0.010000 0.000000
v 0.092388 0.010000 0.038268
v 0.070711 0.010000 0.070711
v 0.038268 0.010000 0.092388
v 0.000000 0.010000 0.100000
v -0.038268 0.010000 0.092388
v -0.070711 0.010000 0.070711
v -0.092388 0.010000 0.038268
v -0.100000 0.010000 0.000000
v -0.092388 0.010000 -0.038268
v -0.070711 0.010000 -0.070711
v -0.038268 0.010000 -0.092388
v 0.000000 0.010000 -0.044873
v 0.017172 0.010000 -0.041458
v 0.031730 0.010000 -0.031730
v 0.041458 0.010000 -0.017172
v 0.044873 0.010000 0.000000
v 0.041458 0.010000 0.017172
v 0.031730 0.010000 0.031730
v 0.017172 0.010000 0.041458
v 0.000000 0.010000 0.044873
v -0.017172 0.010000 0.041458
v -0.031730 0.010000 0.031730
v -0.041458 0.010000 0.017172
v -0.044873 0.010000 0.000000
v -0.041458 0.010000 -0.017172
v -0.031730 0.010000 -0.031730
v -0.017172 0.010000 -0.041458
v 0.000000 0.010000 -0.088890
v 0.034017 0.010000 -0.082124
v 0.062855 0.010000 -0.062855
v 0.082124 0.010000 -0.034017
v 0.088890 0.010000 0.000000
v 0.082124 0.010000 0.034017
v 0.062855 0.010000 0.062855
v 0.034017 0.010000 0.082124
v 0.000000 0.010000 0.088890
v -0.034017 0.010000 0.082124
v -0.062855 0.010000 0.062855
v -0.082124 0.010000 0.034017
v -0.088890 0.010000 0.000000
v -0.082124 0.010000 -0.034017
v -0.062855 0.010000 -0.062855
v -0.034017 0.010000 -0.082124
v 0.000000 0.029291 0.014048
v 0.031022 0.229291 0.014048
v 0.031022 0.086787 0.014048
v 0.006918 0.010000 0.098624
v 0.021897 0.010000 0.084535
v 0.061129 0.086787 0.014048
v -0.031049 0.229291 0.014048
v -0.031049 0.086787 0.014048
v -0.061156 0.086787 0.014048
vn -0.0000 -1.0000 -0.0000
vn -0.0000 -0.0000 1.0000
vt 0.750000 0.357696
vt 0.791214 0.349498
vt 0.826153 0.326153
vt 0.849498 0.291213
vt 0.857696 0.250000
vt 0.849498 0.208787
vt 0.826153 0.173847
vt 0.791213 0.150502
vt 0.750000 0.142304
vt 0.708787 0.150502
vt 0.673848 0.173847
vt 0.650502 0.208787
vt 0.642304 0.250000
vt 0.650502 0.291213
vt 0.673848 0.326153
vt 0.708787 0.349498
vt 0.831641 0.447098
vt 0.750000 0.463337
vt 0.750000 0.490000
vt 0.841844 0.471731
vt 0.900852 0.400852
vt 0.919706 0.419706
vt 0.947098 0.331641
vt 0.971731 0.341844
vt 0.963337 0.250000
vt 0.990000 0.250000
vt 0.947098 0.168360
vt 0.971731 0.158156
vt 0.900852 0.099148
vt 0.919706 0.080294
vt 0.831641 0.052902
vt 0.841844 0.028269
vt 0.750000 0.036663
vt 0.802554 0.047117
vt 0.766603 0.013303
vt 0.750000 0.010000
vt 0.668359 0.052902
vt 0.658156 0.028269
vt 0.599148 0.099148
vt 0.580294 0.080294
vt 0.552902 0.168359
vt 0.528269 0.158156
vt 0.536663 0.250000
vt 0.510000 0.250000
vt 0.552902 0.331641
vt 0.528269 0.341844
vt 0.599148 0.400852
vt 0.580294 0.419706
vt 0.668360 0.447098
vt 0.658156 0.471731
vt 0.000000 0.000000
s 0
f 17/1/1 18/2/1 19/3/1 20/4/1 21/5/1 22/6/1 23/7/1 24/8/1 25/9/1 26/10/1 27/11/1 28/12/1 29/13/1 30/14/1 31/15/1 32/16/1
f 34/17/1 33/18/1 1/19/1 2/20/1
f 35/21/1 34/17/1 2/20/1 3/22/1
f 36/23/1 35/21/1 3/22/1 4/24/1
f 37/25/1 36/23/1 4/24/1 5/26/1
f 38/27/1 37/25/1 5/26/1 6/28/1
f 39/29/1 38/27/1 6/28/1 7/30/1
f 40/31/1 39/29/1 7/30/1 8/32/1
f 41/33/1 53/34/1 52/35/1 9/36/1
f 42/37/1 41/33/1 9/36/1 10/38/1
f 43/39/1 42/37/1 10/38/1 11/40/1
f 44/41/1 43/39/1 11/40/1 12/42/1
f 45/43/1 44/41/1 12/42/1 13/44/1
f 46/45/1 45/43/1 13/44/1 14/46/1
f 47/47/1 46/45/1 14/46/1 15/48/1
f 48/49/1 47/47/1 15/48/1 16/50/1
f 33/18/1 48/49/1 16/50/1 1/19/1
f 52/35/1 53/34/1 40/31/1 8/32/1
f 56/51/2 57/51/2 49/51/2 54/51/2 51/51/2 50/51/2 55/51/2
